<svg width="272" height="315" viewBox="0 0 272 315" fill="none" xmlns="http://www.w3.org/2000/svg">
<path d="M392.183 271.289C393.821 245.39 384.858 220.954 367.145 202.867C355.807 191.315 341.769 183.523 324.531 179.004L320.265 177.94L320.543 173.967C320.861 167.948 319.004 158.269 316.213 151.739C311.751 141.275 303.912 132.373 294.036 126.535C289.305 123.698 287.631 123.112 278.68 121.201C269.515 119.243 268.125 119.098 262.515 119.878C252.086 121.226 243.437 124.857 235.82 131.143C216.427 146.935 210.778 174.945 222.505 197.156C225.074 202.193 230.7 209.482 234.453 212.718C235.924 213.945 236.349 214.797 235.8 215.669C235.453 216.279 233.643 219.697 231.819 223.188C228.547 229.413 228.532 229.486 226.241 228.996C224.952 228.721 220.022 228.353 215.277 228.176C173.251 226.579 133.18 248.987 112.144 285.884C104.954 298.576 102.932 304.154 99.5335 321.004C96.1202 337.927 95.7416 344.617 97.4445 359.133C98.4186 367.634 102.383 382.785 105.456 390.137C116.773 416.977 136.635 438.111 162.518 450.867C181.609 460.271 204.355 464.141 225.4 461.636C229.215 461.233 232.429 460.855 232.643 460.901C232.787 460.931 232.488 463.15 231.929 465.922C228.117 485.194 237.994 504.727 255.745 512.627C268.561 518.332 281.929 517.231 293.826 509.348C303.722 502.865 309.401 494.339 311.597 482.71C315.132 464.444 306.522 446.399 290.195 437.738L286.077 435.565L292.144 429.557C303.052 418.8 311.59 406.092 318.121 390.748C321.487 382.946 325.929 363.884 326.814 353.573L327.271 348.345L333.301 346.59C355.01 340.423 375.046 322.181 385.084 299.446C388.116 292.561 391.745 278.271 392.183 271.289Z" fill="#FFCA6C"/>
<path d="M209.722 85.2567C207.781 78.2254 202.328 74.1706 194.606 73.9659C186.568 73.8459 179.323 83.8583 181.545 92.0903C182.6 95.7382 185.957 100.562 188.288 101.592C189.245 102.025 190.761 102.653 191.647 103.071C194.321 104.25 200.487 103.286 203.435 101.254C209.072 97.3624 211.381 91.4671 209.722 85.2567Z" fill="#FFCA6C"/>
<path d="M192.157 132.104C191.684 129.265 188.378 125.669 185.659 125.088C180.148 123.91 176.093 126.619 174.976 132.16C174.358 135.222 174.539 136.174 176.188 138.732C177.781 141.201 178.694 141.853 181.056 142.357C187.998 143.84 193.412 138.836 192.157 132.104Z" fill="#FFCA6C"/>
<path d="M171.347 173.905C170.523 158.746 161.061 145.698 147.303 140.629C126.665 133.026 104.303 145.817 99.8769 167.764C97.9064 177.534 99.6084 186.491 105.166 195.208C110.539 203.733 118.006 208.902 127.668 210.966C134.481 212.346 138.522 212.296 144.979 210.633C160.59 206.515 172.295 190.306 171.347 173.905Z" fill="#FFCA6C"/>
<path d="M151.122 93.7576C149.033 90.4213 144.838 89.7534 141.802 92.2229C138.694 94.6772 138.148 97.7548 140.252 101.018C142.356 104.282 145.347 104.997 148.796 103.072C152.23 101.219 153.297 97.0363 151.122 93.7576Z" fill="#FFCA6C"/>
<path d="M158.022 33.7433C157.192 30.828 154.366 28.5513 150.645 27.7563C148.283 27.2518 147.193 27.4752 144.777 29.0887C142.361 30.7021 141.726 31.6312 141.241 34.0373C140.079 39.7973 142.821 44.3379 148.046 45.454C150.765 46.0349 154.612 44.7272 156.401 42.5234C158.145 40.5383 158.897 36.4399 158.022 33.7433Z" fill="#FFCA6C"/>
<path d="M85.9428 298.14C85.3654 296.191 83.7036 293.326 82.3076 291.735C80.1136 289.289 79.0273 288.753 75.2343 287.943C58.4879 284.365 50.2188 306.859 65.3506 315.111C76.4384 321.206 89.4182 310.518 85.9428 298.14Z" fill="#FFCA6C"/>
<path d="M98.1836 38.8667C97.2895 34.4167 92.5572 32.3411 88.4328 34.6543C85.1417 36.537 84.2006 41.2034 86.4917 44.2787C90.9182 50.0917 99.5503 46.1556 98.1836 38.8667Z" fill="#FFCA6C"/>
</svg>
