<svg width="633" height="509" viewBox="0 0 633 509" fill="none" xmlns="http://www.w3.org/2000/svg">
<path d="M330.803 1.37139C318.38 5.5323 311.804 18.891 317.04 29.7312C319.111 34.0016 325.688 39.805 330.315 41.338C339.693 44.5134 351.872 41.2285 357.84 33.7826C371.358 17.0295 352.359 -5.85544 330.803 1.37139Z" fill="#3A3238"/>
<path d="M261.627 6.29879C257.486 10.1312 257.242 12.7591 260.652 16.701C263.697 20.205 271.126 20.7525 274.293 17.577C277.581 14.2921 276.972 8.05075 273.197 5.42281C268.812 2.35688 265.889 2.57588 261.627 6.29879Z" fill="#3A3238"/>
<path d="M535.652 49.0027C527.492 56.3391 533.703 68.8218 545.517 68.8218C550.875 68.8218 557.695 62.6899 557.695 57.872C557.695 50.6452 552.458 45.9368 544.542 45.8273C540.28 45.8273 538.575 46.4843 535.652 49.0027Z" fill="#3A3238"/>
<path d="M281.6 56.2296C276.119 58.31 272.709 63.7849 272.709 70.1357C272.709 74.4061 273.44 76.0486 276.485 79.1145C289.76 92.8017 312.9 78.3481 303.4 62.3614C299.259 55.5726 290.003 52.9446 281.6 56.2296Z" fill="#3A3238"/>
<path d="M131.312 59.4051C118.89 62.3615 108.173 70.6833 102.327 81.8521C99.6474 86.9984 99.1602 89.5169 99.1602 97.8387C99.1602 106.27 99.6474 108.569 102.449 113.935C113.288 134.739 138.863 143.171 161.76 133.425C186.605 122.804 194.277 94.9918 178.079 73.9682C168.702 61.814 147.998 55.3537 131.312 59.4051Z" fill="#3A3238"/>
<path d="M448.329 64.0039C436.881 66.7414 426.163 72.2163 417.638 79.7716C403.389 92.3638 396.934 106.27 396.934 124.228C396.934 152.806 417.638 177.005 448.085 184.342C459.046 186.97 475.853 186.422 486.692 183.247C539.184 167.37 551.362 107.255 508.249 75.6107C501.064 70.2453 489.25 65.2084 479.994 63.4565C471.225 61.814 456.245 62.033 448.329 64.0039Z" fill="#3A3238"/>
<path d="M58.7263 66.0844C50.9318 69.1504 47.5217 78.6766 51.9061 85.356C54.2201 88.8599 60.1878 91.8163 64.8157 91.8163C68.5912 91.8163 75.5332 87.6554 77.4818 84.1515C81.1354 77.6912 77.4818 68.8219 69.9309 65.9749C64.8157 64.1135 63.7196 64.1135 58.7263 66.0844Z" fill="#3A3238"/>
<path d="M315.457 95.7582C304.74 100.576 298.407 110.978 299.99 121.052C302.669 139.119 323.13 148.645 341.033 140.214C358.205 132.221 360.763 111.197 346.026 99.2621C337.501 92.2543 326.175 91.0498 315.457 95.7582Z" fill="#3A3238"/>
<path d="M593.623 99.7001C585.707 102.219 579.617 109.883 579.617 117.22C579.617 121.709 584.002 128.607 588.508 131.673C593.623 135.068 605.558 134.958 611.161 131.345C624.557 122.695 620.538 103.204 604.584 99.5906C598.373 98.1672 598.495 98.1672 593.623 99.7001Z" fill="#3A3238"/>
<path d="M13.0555 136.272C6.84424 139.229 6.60066 148.864 12.4465 152.587C13.908 153.463 17.0745 154.23 19.3885 154.23C30.2277 154.23 33.8814 140.652 24.1383 136.163C19.8757 134.082 17.3181 134.192 13.0555 136.272Z" fill="#3A3238"/>
<path d="M104.884 155.325C77.9689 161.676 54.8291 180.947 46.1821 204.38C34.9775 234.82 46.6692 269.421 74.6806 288.583C123.031 321.433 191.963 300.081 207.674 247.303C209.014 242.704 209.745 236.134 209.745 228.688C209.745 210.512 203.655 194.634 191.476 181.057C170.894 158.281 136.184 147.988 104.884 155.325Z" fill="#3A3238"/>
<path d="M577.547 159.705C572.797 162.223 571.092 164.961 571.092 169.888C571.092 177.443 580.592 183.356 588.264 180.509C598.738 176.567 599.347 163.866 589.36 159.157C584.732 156.967 582.297 157.077 577.547 159.705Z" fill="#3A3238"/>
<path d="M332.386 169.56C290.369 174.815 254.319 195.182 231.423 226.498C216.808 246.536 209.136 269.421 207.796 296.029L207.552 302.599L201.098 303.365C191.354 304.679 176.496 310.264 166.997 316.286C151.773 325.922 140.203 340.047 134.235 356.253C131.313 364.027 130.947 366.655 130.947 380.342C130.947 394.358 131.191 396.438 134.357 404.432C140.081 419.323 148.85 430.93 161.516 440.237C193.425 463.998 240.192 463.998 271.735 440.237C278.921 434.981 288.664 424.579 292.561 418.119C294.022 415.6 295.24 414.724 296.824 415.272C297.92 415.6 304.009 417.243 310.22 418.885C321.303 421.842 321.425 421.842 321.425 425.346C321.425 427.317 322.521 434.653 323.861 441.661C335.674 503.746 385.242 555.867 451.496 575.795C474.27 582.584 483.891 583.898 512.025 583.898C540.28 583.898 551.119 582.475 573.772 575.686C587.047 571.744 609.943 561.451 620.66 554.772C659.755 530.244 686.792 494.877 698.362 453.158C706.887 422.389 705.304 387.898 694.099 357.786C692.15 352.311 690.445 347.712 690.445 347.383C690.445 347.164 694.099 346.945 698.727 346.945C730.879 346.836 758.769 326.579 765.346 298.219C770.095 277.743 763.762 258.471 747.077 243.361C733.315 230.769 717.726 224.965 698.362 225.184C667.914 225.403 641.973 243.361 633.692 269.859L631.621 276.539L619.93 269.421C598.982 256.61 575.72 247.85 548.927 242.813C535.286 240.185 503.256 239.309 486.449 241.061L477.924 241.937L473.052 233.616C455.758 203.613 419.709 179.633 379.884 171.64C367.827 169.231 343.712 168.136 332.386 169.56Z" fill="#3A3238"/>
<path d="M16.9527 333.915C5.74813 338.514 0.632996 345.632 0.632996 356.8C0.632996 365.232 3.67772 371.363 10.2543 376.291C28.5227 389.759 55.9252 378.152 55.9252 356.8C55.9252 338.514 35.221 326.469 16.9527 333.915Z" fill="#3A3238"/>
<path d="M97.3334 492.796C86.7377 497.724 82.1098 506.921 84.4238 518.309C86.9813 530.135 105.493 537.8 117.916 532.106C123.396 529.478 129.973 523.127 130.825 519.404C131.191 517.871 131.678 515.462 132.043 514.039C133.018 509.768 129.364 501.008 125.101 497.286C116.941 490.168 106.711 488.526 97.3334 492.796Z" fill="#3A3238"/>
<path d="M178.201 504.622C173.817 506.155 169.189 512.068 169.189 516.229C169.189 524.66 174.913 529.806 184.169 529.806C189.284 529.806 190.745 529.259 194.277 526.083C197.687 523.017 198.418 521.484 198.418 517.871C198.418 507.25 188.553 500.789 178.201 504.622Z" fill="#3A3238"/>
</svg>
