<svg width="633" height="508" viewBox="0 0 633 508" fill="none" xmlns="http://www.w3.org/2000/svg">
<path d="M330.803 1.91851C318.38 6.07942 311.804 19.4381 317.041 30.2784C319.111 34.5488 325.688 40.3521 330.316 41.8851C339.693 45.0605 351.872 41.7756 357.84 34.3298C371.358 17.5767 352.359 -5.30832 330.803 1.91851Z" fill="#D282A6"/>
<path d="M261.627 6.84591C257.486 10.6783 257.242 13.3063 260.652 17.2482C263.697 20.7521 271.126 21.2996 274.293 18.1241C277.581 14.8392 276.972 8.59787 273.197 5.96993C268.812 2.904 265.889 3.123 261.627 6.84591Z" fill="#D282A6"/>
<path d="M535.652 49.5499C527.492 56.8862 533.703 69.3689 545.517 69.3689C550.875 69.3689 557.695 63.237 557.695 58.4191C557.695 51.1923 552.459 46.4839 544.542 46.3744C540.28 46.3744 538.575 47.0314 535.652 49.5499Z" fill="#D282A6"/>
<path d="M281.6 56.7767C276.12 58.8571 272.709 64.332 272.709 70.6829C272.709 74.9533 273.44 76.5957 276.485 79.6617C289.76 93.3488 312.9 78.8952 303.4 62.9085C299.259 56.1197 290.003 53.4918 281.6 56.7767Z" fill="#D282A6"/>
<path d="M131.313 59.9522C118.89 62.9086 108.173 71.2304 102.327 82.3992C99.6474 87.5456 99.1603 90.064 99.1603 98.3858C99.1603 106.817 99.6474 109.117 102.449 114.482C113.288 135.286 138.863 143.718 161.76 133.972C186.605 123.351 194.277 95.5389 178.079 74.5154C168.702 62.3611 147.998 55.9008 131.313 59.9522Z" fill="#D282A6"/>
<path d="M448.329 64.5511C436.881 67.2885 426.163 72.7634 417.638 80.3187C403.389 92.9109 396.934 106.817 396.934 124.775C396.934 153.354 417.638 177.552 448.085 184.889C459.046 187.517 475.853 186.969 486.692 183.794C539.184 167.917 551.362 107.803 508.249 76.1578C501.064 70.7924 489.25 65.7555 479.994 64.0036C471.225 62.3611 456.245 62.5801 448.329 64.5511Z" fill="#D282A6"/>
<path d="M58.7263 66.6316C50.9319 69.6975 47.5218 79.2238 51.9062 85.9031C54.2202 89.407 60.1878 92.3635 64.8158 92.3635C68.5912 92.3635 75.5332 88.2026 77.4818 84.6986C81.1355 78.2383 77.4818 69.369 69.9309 66.5221C64.8158 64.6606 63.7197 64.6606 58.7263 66.6316Z" fill="#D282A6"/>
<path d="M315.457 96.3053C304.74 101.123 298.407 111.525 299.99 121.599C302.67 139.666 323.13 149.193 341.033 140.761C358.205 132.768 360.763 111.744 346.026 99.8092C337.501 92.8014 326.175 91.5969 315.457 96.3053Z" fill="#D282A6"/>
<path d="M593.623 100.247C585.707 102.766 579.617 110.431 579.617 117.767C579.617 122.256 584.002 129.155 588.508 132.221C593.623 135.615 605.558 135.505 611.161 131.892C624.557 123.242 620.538 103.751 604.584 100.138C598.373 98.7143 598.495 98.7143 593.623 100.247Z" fill="#D282A6"/>
<path d="M13.0555 136.819C6.8443 139.776 6.60072 149.412 12.4466 153.134C13.9081 154.01 17.0746 154.777 19.3886 154.777C30.2278 154.777 33.8814 141.199 24.1383 136.71C19.8757 134.629 17.3181 134.739 13.0555 136.819Z" fill="#D282A6"/>
<path d="M104.884 155.872C77.969 162.223 54.8291 181.494 46.1821 204.927C34.9775 235.367 46.6693 269.968 74.6807 289.13C123.031 321.98 191.963 300.628 207.674 247.85C209.014 243.251 209.745 236.681 209.745 229.235C209.745 211.059 203.655 195.182 191.476 181.604C170.894 158.828 136.184 148.536 104.884 155.872Z" fill="#D282A6"/>
<path d="M577.547 160.252C572.797 162.77 571.092 165.508 571.092 170.435C571.092 177.99 580.592 183.903 588.264 181.056C598.738 177.114 599.347 164.413 589.36 159.704C584.733 157.514 582.297 157.624 577.547 160.252Z" fill="#D282A6"/>
<path d="M332.386 170.107C290.369 175.363 254.319 195.729 231.423 227.045C216.808 247.083 209.136 269.968 207.796 296.576L207.552 303.146L201.098 303.913C191.354 305.227 176.496 310.811 166.997 316.833C151.773 326.469 140.203 340.594 134.236 356.8C131.313 364.574 130.947 367.202 130.947 380.889C130.947 394.905 131.191 396.985 134.357 404.979C140.081 419.87 148.85 431.477 161.516 440.784C193.425 464.545 240.192 464.545 271.735 440.784C278.921 435.529 288.664 425.126 292.561 418.666C294.023 416.148 295.24 415.272 296.824 415.819C297.92 416.148 304.009 417.79 310.22 419.432C321.303 422.389 321.425 422.389 321.425 425.893C321.425 427.864 322.521 435.2 323.861 442.208C335.674 504.293 385.242 556.414 451.496 576.342C474.27 583.131 483.891 584.445 512.025 584.445C540.28 584.445 551.119 583.022 573.772 576.233C587.047 572.291 609.943 561.998 620.66 555.319C659.755 530.791 686.792 495.424 698.362 453.705C706.887 422.936 705.304 388.445 694.099 358.333C692.15 352.858 690.445 348.259 690.445 347.931C690.445 347.712 694.099 347.493 698.727 347.493C730.879 347.383 758.769 327.126 765.346 298.766C770.095 278.29 763.762 259.019 747.077 243.908C733.315 231.316 717.726 225.512 698.362 225.731C667.914 225.95 641.973 243.908 633.692 270.406L631.621 277.086L619.93 269.968C598.982 257.157 575.72 248.397 548.927 243.36C535.286 240.733 503.256 239.857 486.449 241.609L477.924 242.484L473.052 234.163C455.758 204.16 419.709 180.18 379.884 172.187C367.827 169.778 343.712 168.683 332.386 170.107Z" fill="#D282A6"/>
<path d="M16.9528 334.462C5.74819 339.061 0.633057 346.179 0.633057 357.347C0.633057 365.779 3.67778 371.911 10.2544 376.838C28.5227 390.306 55.9252 378.699 55.9252 357.347C55.9252 339.061 35.2211 327.017 16.9528 334.462Z" fill="#D282A6"/>
<path d="M97.3334 493.343C86.7378 498.271 82.1098 507.468 84.4238 518.856C86.9814 530.682 105.493 538.347 117.916 532.653C123.396 530.025 129.973 523.674 130.825 519.951C131.191 518.418 131.678 516.009 132.043 514.586C133.018 510.315 129.364 501.556 125.101 497.833C116.941 490.715 106.711 489.073 97.3334 493.343Z" fill="#D282A6"/>
<path d="M178.201 505.169C173.817 506.702 169.189 512.615 169.189 516.776C169.189 525.207 174.913 530.353 184.169 530.353C189.284 530.353 190.745 529.806 194.277 526.63C197.687 523.565 198.418 522.032 198.418 518.418C198.418 507.797 188.553 501.337 178.201 505.169Z" fill="#D282A6"/>
</svg>
