<svg width="594" height="511" viewBox="0 0 594 511" fill="none" xmlns="http://www.w3.org/2000/svg">
<path d="M256.31 1.60909C246.691 4.83122 241.598 15.1759 245.653 23.5704C247.256 26.8773 252.349 31.3714 255.933 32.5585C263.195 35.0174 272.626 32.4737 277.247 26.7078C287.716 13.7345 273.003 -3.98723 256.31 1.60909Z" fill="#6E4555"/>
<path d="M202.742 5.42477C199.535 8.39252 199.346 10.4275 201.987 13.4801C204.345 16.1935 210.098 16.6174 212.55 14.1584C215.096 11.6146 214.625 6.78145 211.701 4.74643C208.306 2.37223 206.043 2.54181 202.742 5.42477Z" fill="#6E4555"/>
<path d="M414.941 38.4939C408.623 44.175 413.432 53.8414 422.581 53.8414C426.73 53.8414 432.012 49.093 432.012 45.3621C432.012 39.7658 427.956 36.1197 421.826 36.0349C418.525 36.0349 417.205 36.5437 414.941 38.4939Z" fill="#6E4555"/>
<path d="M218.209 44.0902C213.965 45.7013 211.324 49.9409 211.324 54.8589C211.324 58.1658 211.89 59.4377 214.248 61.8119C224.527 72.411 242.447 61.2184 235.09 48.8386C231.884 43.5815 224.716 41.5464 218.209 44.0902Z" fill="#6E4555"/>
<path d="M101.829 46.5493C92.2091 48.8387 83.9097 55.2829 79.3828 63.9318C77.308 67.9171 76.9307 69.8673 76.9307 76.3115C76.9307 82.8406 77.308 84.6212 79.4771 88.7761C87.8708 104.887 107.676 111.416 125.407 103.869C144.646 95.6443 150.588 74.1069 138.044 57.8267C130.782 48.4147 114.749 43.4119 101.829 46.5493Z" fill="#6E4555"/>
<path d="M347.32 50.1106C338.455 52.2304 330.156 56.47 323.554 62.3207C312.52 72.0719 307.521 82.8406 307.521 96.7466C307.521 118.878 323.554 137.617 347.132 143.298C355.62 145.333 368.635 144.909 377.028 142.45C417.677 130.155 427.108 83.6037 393.722 59.0986C388.157 54.9438 379.009 51.0433 371.841 49.6866C365.051 48.4147 353.451 48.5843 347.32 50.1106Z" fill="#6E4555"/>
<path d="M45.6195 51.7216C39.5836 54.0958 36.9429 61.4728 40.3381 66.6452C42.13 69.3585 46.7512 71.6479 50.335 71.6479C53.2587 71.6479 58.6344 68.4258 60.1434 65.7125C62.9727 60.7097 60.1434 53.8415 54.2961 51.6369C50.335 50.1954 49.4862 50.1954 45.6195 51.7216Z" fill="#6E4555"/>
<path d="M244.427 74.7004C236.128 78.4313 231.224 86.4866 232.45 94.2876C234.524 108.278 250.369 115.655 264.232 109.126C277.53 102.936 279.511 86.6562 268.099 77.4138C261.497 71.9871 252.726 71.0544 244.427 74.7004Z" fill="#6E4555"/>
<path d="M459.833 77.753C453.703 79.7032 448.988 85.6387 448.988 91.3199C448.988 94.7964 452.383 100.138 455.872 102.513C459.833 105.141 469.076 105.056 473.414 102.258C483.788 95.5595 480.676 80.4664 468.321 77.6682C463.512 76.5659 463.606 76.5659 459.833 77.753Z" fill="#6E4555"/>
<path d="M519.061 95.8987C516.043 97.2554 513.119 101.495 513.119 104.463C513.119 106.667 516.42 111.246 518.872 112.348C523.965 114.892 530.661 112.857 533.49 108.024C537.829 100.393 527.737 91.9134 519.061 95.8987Z" fill="#6E4555"/>
<path d="M10.2529 106.074C5.443 108.363 5.25438 115.825 9.78131 118.708C10.913 119.386 13.3651 119.98 15.157 119.98C23.5507 119.98 26.3801 109.465 18.8352 105.989C15.5343 104.378 13.5537 104.463 10.2529 106.074Z" fill="#6E4555"/>
<path d="M81.3634 120.828C60.5206 125.746 42.6015 140.669 35.9055 158.815C27.2288 182.387 36.2827 209.182 57.9742 224.021C95.4157 249.458 148.796 232.924 160.962 192.054C161.999 188.492 162.565 183.405 162.565 177.639C162.565 163.563 157.85 151.268 148.419 140.754C132.48 123.117 105.601 115.147 81.3634 120.828Z" fill="#6E4555"/>
<path d="M447.384 124.219C443.706 126.17 442.386 128.289 442.386 132.105C442.386 137.956 449.742 142.535 455.684 140.33C463.795 137.278 464.266 127.442 456.533 123.795C452.949 122.1 451.063 122.184 447.384 124.219Z" fill="#6E4555"/>
<path d="M257.536 131.851C224.999 135.921 197.083 151.692 179.353 175.943C168.035 191.46 162.094 209.182 161.056 229.786L160.868 234.874L155.869 235.468C148.324 236.485 136.818 240.81 129.462 245.473C117.673 252.935 108.714 263.873 104.092 276.423C101.829 282.443 101.546 284.478 101.546 295.077C101.546 305.93 101.735 307.541 104.187 313.731C108.619 325.263 115.41 334.251 125.218 341.459C149.928 359.859 186.143 359.859 210.57 341.459C216.134 337.389 223.679 329.333 226.697 324.33C227.828 322.38 228.772 321.702 229.998 322.126C230.846 322.38 235.562 323.652 240.372 324.924C248.954 327.213 249.048 327.213 249.048 329.927C249.048 331.453 249.897 337.134 250.935 342.561C260.083 390.638 298.467 431 349.773 446.432C367.409 451.689 374.859 452.707 396.645 452.707C418.525 452.707 426.919 451.604 444.461 446.347C454.741 443.295 472.471 435.324 480.771 430.152C511.044 411.158 531.982 383.77 540.941 351.464C547.543 327.637 546.317 300.928 537.64 277.61C536.131 273.37 534.811 269.809 534.811 269.554C534.811 269.385 537.64 269.215 541.224 269.215C566.122 269.13 587.719 253.444 592.812 231.482C596.49 215.626 591.586 200.703 578.665 189.001C568.008 179.25 555.937 174.756 540.941 174.926C517.363 175.095 497.275 189.001 490.862 209.521L489.259 214.693L480.205 209.182C463.983 199.261 445.97 192.478 425.221 188.577C414.659 186.542 389.855 185.864 376.84 187.221L370.238 187.899L366.466 181.455C353.073 158.221 325.157 139.652 294.318 133.462C284.981 131.596 266.307 130.749 257.536 131.851Z" fill="#6E4555"/>
<path d="M13.2708 259.125C4.59418 262.686 0.633118 268.198 0.633118 276.847C0.633118 283.376 2.99089 288.124 8.08369 291.94C22.2303 302.369 43.4503 293.381 43.4503 276.847C43.4503 262.686 27.4174 253.359 13.2708 259.125Z" fill="#6E4555"/>
<path d="M75.5161 382.159C67.311 385.975 63.7272 393.097 65.5191 401.916C67.4996 411.074 81.8349 417.009 91.4546 412.6C95.6986 410.565 100.791 405.647 101.452 402.764C101.735 401.577 102.112 399.711 102.395 398.609C103.149 395.302 100.32 388.519 97.019 385.636C90.7001 380.124 82.778 378.852 75.5161 382.159Z" fill="#6E4555"/>
<path d="M138.139 391.317C134.743 392.504 131.16 397.083 131.16 400.305C131.16 406.834 135.592 410.819 142.76 410.819C146.721 410.819 147.853 410.395 150.588 407.936C153.228 405.562 153.794 404.375 153.794 401.577C153.794 393.352 146.155 388.349 138.139 391.317Z" fill="#6E4555"/>
<path d="M563.104 398.185C555.465 402.17 552.447 411.328 556.408 418.281C562.633 429.219 580.457 429.05 586.399 418.026C589.228 413.024 588.474 406.325 584.701 402.001C579.986 396.574 569.612 394.793 563.104 398.185Z" fill="#6E4555"/>
<path d="M195.291 405.392C176.712 409.802 163.037 423.538 160.396 440.327C156.435 465.51 178.221 487.981 206.608 487.981C219.246 487.981 229.903 483.995 239.24 475.686C248.388 467.63 252.821 457.964 252.821 446.517C252.727 438.462 251.595 433.883 247.822 426.93C238.58 410.141 215.379 400.559 195.291 405.392Z" fill="#6E4555"/>
<path d="M101.452 446.856C97.8678 449.993 98.1507 454.911 102.017 457.794C105.884 460.762 109.845 460.677 113.335 457.54C116.824 454.403 116.919 450.841 113.618 447.365C110.411 443.888 104.941 443.634 101.452 446.856Z" fill="#6E4555"/>
<path d="M25.3426 452.876C21.9474 454.487 19.8726 458.218 19.8726 462.627C19.8726 465.426 20.4384 466.613 23.0791 468.987C25.7198 471.361 27.0402 471.87 30.1525 471.87C37.603 471.87 42.5072 467.715 42.5072 461.525C42.5072 458.303 39.8665 454.233 36.6599 452.707C33.7363 451.18 28.4549 451.265 25.3426 452.876Z" fill="#6E4555"/>
<path d="M480.11 458.897C477.281 459.829 474.452 462.967 473.509 466.019C471.622 472.294 476.904 478.653 483.977 478.653C491.428 478.653 495.672 474.838 495.672 468.139C495.672 464.408 495.294 463.815 491.994 461.186C488.315 458.388 484.166 457.54 480.11 458.897Z" fill="#6E4555"/>
<path d="M371.558 473.82C369.295 474.922 366.183 477.466 364.579 479.416C362.127 482.469 361.75 483.826 361.75 488.32C361.75 508.161 391.835 512.401 398.06 493.322C402.681 479.332 385.988 467.037 371.558 473.82Z" fill="#6E4555"/>
</svg>
