<svg width="501" height="270" viewBox="0 0 501 270" fill="none" xmlns="http://www.w3.org/2000/svg">
<path d="M216.192 1.15733C208.081 3.87387 203.788 12.5954 207.207 19.6727C208.558 22.4607 212.852 26.2496 215.873 27.2504C221.996 29.3235 229.947 27.1789 233.843 22.3177C242.669 11.3801 230.265 -3.56087 216.192 1.15733Z" fill="#3A3238"/>
<path d="M171.028 4.3743C168.325 6.87638 168.166 8.59209 170.392 11.1656C172.38 13.4533 177.23 13.8107 179.298 11.7376C181.445 9.59292 181.047 5.51811 178.582 3.8024C175.72 1.80074 173.811 1.94372 171.028 4.3743Z" fill="#3A3238"/>
<path d="M349.932 32.2545C344.604 37.0442 348.66 45.1938 356.372 45.1938C359.871 45.1938 364.323 41.1905 364.323 38.045C364.323 33.3268 360.904 30.2529 355.736 30.1814C352.953 30.1814 351.84 30.6103 349.932 32.2545Z" fill="#3A3238"/>
<path d="M184.069 36.9727C180.49 38.331 178.264 41.9054 178.264 46.0517C178.264 48.8397 178.741 49.912 180.729 51.9137C189.396 60.8497 204.503 51.4133 198.301 40.976C195.598 36.5438 189.555 34.8281 184.069 36.9727Z" fill="#3A3238"/>
<path d="M85.95 39.0459C77.8397 40.9761 70.8426 46.4092 67.026 53.7009C65.2767 57.0609 64.9587 58.7051 64.9587 64.1382C64.9587 69.6427 65.2767 71.144 67.1055 74.6469C74.1821 88.2296 90.8798 93.7341 105.828 87.3717C122.049 80.4374 127.058 62.2795 116.483 48.5538C110.36 40.6186 96.8432 36.4009 85.95 39.0459Z" fill="#3A3238"/>
<path d="M292.921 42.0484C285.447 43.8356 278.45 47.41 272.884 52.3426C263.581 60.5637 259.367 69.6427 259.367 81.3667C259.367 100.025 272.884 115.824 292.762 120.614C299.918 122.329 310.891 121.972 317.968 119.899C352.238 109.533 360.189 70.2861 332.041 49.6261C327.35 46.1232 319.637 42.8348 313.595 41.6909C307.87 40.6186 298.09 40.7616 292.921 42.0484Z" fill="#3A3238"/>
<path d="M38.5605 43.4067C33.4717 45.4083 31.2453 51.6278 34.1078 55.9885C35.6185 58.2762 39.5146 60.2063 42.5361 60.2063C45.001 60.2063 49.5332 57.4898 50.8054 55.2022C53.1908 50.9844 50.8054 45.1939 45.8756 43.3352C42.5361 42.1199 41.8205 42.1199 38.5605 43.4067Z" fill="#3A3238"/>
<path d="M206.173 62.7798C199.176 65.9253 195.041 72.7167 196.075 79.2935C197.824 91.089 211.182 97.3085 222.871 91.8039C234.082 86.5853 235.752 72.8596 226.131 65.0675C220.565 60.4922 213.17 59.7059 206.173 62.7798Z" fill="#3A3238"/>
<path d="M387.78 65.3534C382.611 66.9977 378.636 72.0018 378.636 76.7915C378.636 79.7225 381.498 84.2262 384.44 86.2279C387.78 88.444 395.572 88.3725 399.229 86.0134C407.976 80.3659 405.352 67.641 394.936 65.2819C390.881 64.3526 390.96 64.3526 387.78 65.3534Z" fill="#3A3238"/>
<path d="M437.714 80.6519C435.169 81.7957 432.704 85.3701 432.704 87.8721C432.704 89.7308 435.487 93.5912 437.555 94.5205C441.848 96.6651 447.494 94.9494 449.879 90.8746C453.537 84.4407 445.029 77.2919 437.714 80.6519Z" fill="#3A3238"/>
<path d="M8.74327 89.2303C4.68813 91.1605 4.52911 97.4514 8.34571 99.882C9.29986 100.454 11.3672 100.954 12.8779 100.954C19.9545 100.954 22.3399 92.0899 15.9789 89.1589C13.196 87.8006 11.5262 87.8721 8.74327 89.2303Z" fill="#3A3238"/>
<path d="M68.6958 101.669C51.1235 105.816 36.0161 118.397 30.3707 133.696C23.0555 153.569 30.6887 176.16 48.9766 188.67C80.5431 210.116 125.547 196.176 135.804 161.719C136.679 158.717 137.156 154.427 137.156 149.566C137.156 137.699 133.18 127.333 125.229 118.469C111.792 103.599 89.1305 96.8796 68.6958 101.669Z" fill="#3A3238"/>
<path d="M377.284 104.529C374.183 106.173 373.07 107.96 373.07 111.177C373.07 116.11 379.272 119.97 384.281 118.111C391.119 115.538 391.517 107.245 384.997 104.171C381.975 102.742 380.385 102.813 377.284 104.529Z" fill="#3A3238"/>
<path d="M217.225 110.963C189.793 114.394 166.258 127.691 151.309 148.136C141.768 161.219 136.759 176.16 135.884 193.531L135.725 197.82L131.511 198.321C125.15 199.179 115.449 202.825 109.247 206.756C99.3081 213.047 91.7544 222.269 87.8583 232.85C85.95 237.925 85.7115 239.641 85.7115 248.577C85.7115 257.727 85.8705 259.086 87.9378 264.304C91.6749 274.027 97.3998 281.604 105.669 287.681C126.501 303.194 157.034 303.194 177.628 287.681C182.319 284.249 188.68 277.458 191.225 273.24C192.179 271.596 192.974 271.024 194.008 271.381C194.723 271.596 198.699 272.668 202.754 273.741C209.99 275.671 210.069 275.671 210.069 277.958C210.069 279.245 210.785 284.035 211.659 288.61C219.372 329.144 251.734 363.172 294.989 376.183C309.857 380.615 316.139 381.473 334.506 381.473C352.953 381.473 360.03 380.543 374.819 376.111C383.486 373.538 398.434 366.818 405.432 362.457C430.955 346.444 448.607 323.353 456.161 296.116C461.727 276.028 460.693 253.51 453.378 233.85C452.105 230.276 450.992 227.273 450.992 227.059C450.992 226.916 453.378 226.773 456.399 226.773C477.39 226.702 495.599 213.476 499.893 194.961C502.994 181.593 498.859 169.011 487.966 159.146C478.981 150.924 468.803 147.136 456.161 147.279C436.282 147.422 419.346 159.146 413.939 176.446L412.588 180.806L404.955 176.16C391.278 167.796 376.091 162.077 358.599 158.788C349.693 157.072 328.781 156.5 317.809 157.644L312.243 158.216L309.062 152.783C297.772 133.195 274.236 117.54 248.235 112.321C240.363 110.748 224.62 110.033 217.225 110.963Z" fill="#3A3238"/>
<path d="M11.2877 218.266C3.97252 221.269 0.632996 225.915 0.632996 233.207C0.632996 238.712 2.62081 242.715 6.91449 245.932C18.8414 254.725 36.7317 247.147 36.7317 233.207C36.7317 221.269 23.2146 213.405 11.2877 218.266Z" fill="#3A3238"/>
</svg>
