<svg width="663" height="728" viewBox="0 0 663 728" fill="none" xmlns="http://www.w3.org/2000/svg">
<path d="M-331.215 802.5C-280.555 864.928 -131.557 978.181 -54.7146 1005.5C3.96044 1026.43 77.5962 1006.99 153.786 985.5C160.658 983.636 235.55 933.976 242.786 932.5C268.963 927.175 332.06 855.073 360.012 844C409.258 824.57 464.373 737.57 493.768 714.176C525.807 688.626 539.748 662.337 538.54 629.814C538.027 617.071 535.959 605.046 529.361 575.636C526.23 562.143 522.948 545.646 522.095 538.96C515.063 489.826 524.839 450.009 555.472 401.677C563.082 389.692 571.474 377.876 593.59 348.27C623.717 307.818 634.36 292.027 643.659 273.47C664.76 231.385 667.817 198.17 654.5 152.327C636.532 90.1261 595.018 -27.4127 538.54 -61.9274C525.242 -131.102 460.674 -132.395 455.285 -139.5C388.652 -226.236 310.354 -121.97 137.825 -82.8877C123.196 -79.6593 121.016 -79.3855 109.001 -79.7432C71.2325 -80.8776 33.3949 -74.8434 -2.67709 -61.9272C-15.3032 -57.3386 -49.9096 -40.0817 -62.533 -32.0248C-112.561 0.0555528 -154.085 44.7415 -190.623 105.611C-194.985 112.907 -201.646 123.239 -205.414 128.682C-215.034 142.587 -228.027 165.488 -235.429 181.605C-242.365 196.707 -252.819 228.205 -256.179 243.458C-262.304 272.111 -264.295 298.31 -261.97 318.874C-261.445 323.321 -261.53 333.582 -262.241 341.665C-262.905 349.82 -263.63 363.597 -263.875 372.4C-264.418 392.346 -262.121 436.25 -259.526 455.324C-251.638 514.612 -340.553 562.227 -314.715 612.5C-306.422 628.59 -341.899 789.301 -331.215 802.5Z" fill="#D282A6"/>
</svg>
