<svg width="682" height="728" viewBox="0 0 682 728" fill="none" xmlns="http://www.w3.org/2000/svg">
<path d="M252 902C335.375 916.1 422.623 854.349 497 830.5C553.847 812.336 556.456 709.446 592.642 653.181C595.963 648.156 601.739 639.924 605.612 634.96C619.638 617.011 634.476 592.655 645.288 569.872C664.396 529.786 679.309 479.302 681.594 447.454C684.045 412.707 673.383 387.402 647.402 366.229C637.195 357.954 626.465 351.016 599.154 334.892C586.553 327.552 571.524 318.277 565.764 314.256C522.904 285.128 498.896 253.026 482.76 203.755C478.768 191.53 475.449 178.988 467.888 146.966C457.493 103.264 452.661 86.8178 444.76 69.2523C426.846 29.409 425.171 -51.0323 380.5 -74.5C319.958 -106.397 234.765 -61.8755 168.938 -54.0386C162.985 -53.2884 160.466 -53.4489 151.238 -55.2604C38.0001 -76.9099 -91.962 -13.2449 -181.318 107.727C-188.961 117.928 -190.26 119.308 -198.863 125.665C-225.916 145.642 -247.475 170.469 -262.489 198.947C-267.692 208.961 -278.334 239.549 -280.854 251.89C-290.724 300.899 -284.955 353.702 -263.219 414.633C-260.601 421.928 -257.23 432.522 -255.633 438.245C-251.55 452.863 -242.85 475.374 -235.519 490.259C-228.651 504.208 -211.544 531.096 -202.08 543.182C-184.173 565.783 -253.03 557.342 -235.519 569.872C-231.717 572.57 -207.836 604.683 -202.08 610.5C-270.588 610.5 -187.954 647.136 -181.318 653.181C-166.274 666.872 -134.545 722.118 -118 733.5C-66.6964 768.976 -54.7741 843.933 1.99995 863.5C20.1865 869.75 234.391 899.004 252 902Z" fill="#FFCA6C"/>
</svg>
