<svg width="681" height="729" viewBox="0 0 681 729" fill="none" xmlns="http://www.w3.org/2000/svg">
<path d="M-313.001 765.5C-262.34 827.928 -113.343 941.181 -36.5004 968.5C22.1747 989.431 95.8104 969.994 172 948.5C178.872 946.636 253.764 896.976 261 895.5C287.177 890.175 350.275 818.073 378.226 807C427.472 787.57 482.587 700.57 511.982 677.176C544.021 651.625 557.962 625.337 556.754 592.814C556.241 580.071 554.173 568.046 547.575 538.636C544.444 525.143 541.162 508.646 540.31 501.96C533.277 452.826 543.053 413.009 573.687 364.677C581.296 352.692 589.688 340.876 611.804 311.27C641.931 270.818 652.574 255.027 661.874 236.47C682.974 194.385 686.031 161.17 672.714 115.327C654.746 53.1261 613.232 -64.4127 556.754 -98.9274C543.456 -168.102 478.889 -169.395 473.5 -176.5C406.866 -263.236 328.568 -158.97 156.04 -119.888C141.41 -116.659 139.231 -116.386 127.215 -116.743C89.4467 -117.878 51.6092 -111.843 15.5371 -98.9272C2.91106 -94.3386 -31.6954 -77.0817 -44.3188 -69.0248C-94.3468 -36.9445 -135.871 7.74149 -172.409 68.6107C-176.771 75.9073 -183.432 86.2388 -187.2 91.6819C-196.82 105.587 -209.813 128.488 -217.215 144.605C-224.151 159.707 -234.605 191.205 -237.965 206.458C-244.09 235.111 -246.081 261.309 -243.755 281.874C-243.23 286.321 -243.315 296.583 -244.026 304.665C-244.691 312.82 -245.416 326.597 -245.66 335.4C-246.204 355.346 -243.907 399.25 -241.312 418.324C-233.424 477.612 -322.339 525.227 -296.5 575.5C-288.208 591.59 -323.684 752.301 -313.001 765.5Z" fill="#3A3238"/>
</svg>
