<svg width="1366" height="769" viewBox="0 0 1366 769" fill="none" xmlns="http://www.w3.org/2000/svg">
<path d="M1022.47 173.772C1008.87 178.842 1001.67 195.118 1007.4 208.326C1009.67 213.529 1016.87 220.6 1021.93 222.468C1032.2 226.336 1045.53 222.334 1052.07 213.262C1066.87 192.85 1046.07 164.967 1022.47 173.772Z" fill="#3A3238"/>
<path d="M946.733 179.776C942.2 184.445 941.933 187.647 945.667 192.45C949 196.719 957.133 197.386 960.6 193.517C964.2 189.515 963.533 181.91 959.4 178.708C954.6 174.973 951.4 175.24 946.733 179.776Z" fill="#3A3238"/>
<path d="M1246.73 231.806C1237.8 240.745 1244.6 255.954 1257.53 255.954C1263.4 255.954 1270.87 248.483 1270.87 242.613C1270.87 233.807 1265.13 228.071 1256.47 227.937C1251.8 227.937 1249.93 228.738 1246.73 231.806Z" fill="#3A3238"/>
<path d="M968.6 240.612C962.6 243.146 958.867 249.817 958.867 257.555C958.867 262.758 959.667 264.759 963 268.495C977.533 285.171 1002.87 267.561 992.467 248.083C987.933 239.811 977.8 236.609 968.6 240.612Z" fill="#3A3238"/>
<path d="M804.067 244.48C790.467 248.083 778.733 258.222 772.333 271.83C769.4 278.1 768.867 281.169 768.867 291.308C768.867 301.581 769.4 304.382 772.467 310.92C784.333 336.268 812.333 346.541 837.4 334.667C864.6 321.726 873 287.839 855.267 262.224C845 247.416 822.333 239.544 804.067 244.48Z" fill="#3A3238"/>
<path d="M1151.13 250.084C1138.6 253.419 1126.87 260.09 1117.53 269.295C1101.93 284.638 1094.87 301.581 1094.87 323.46C1094.87 358.281 1117.53 387.765 1150.87 396.704C1162.87 399.905 1181.27 399.238 1193.13 395.369C1250.6 376.025 1263.93 302.782 1216.73 264.225C1208.87 257.688 1195.93 251.551 1185.8 249.417C1176.2 247.416 1159.8 247.682 1151.13 250.084Z" fill="#3A3238"/>
<path d="M724.6 252.619C716.067 256.354 712.333 267.961 717.133 276.099C719.667 280.368 726.2 283.97 731.267 283.97C735.4 283.97 743 278.901 745.133 274.632C749.133 266.76 745.133 255.954 736.867 252.485C731.267 250.217 730.067 250.217 724.6 252.619Z" fill="#3A3238"/>
<path d="M1005.67 288.773C993.933 294.643 987 307.318 988.733 319.591C991.667 341.604 1014.07 353.211 1033.67 342.939C1052.47 333.199 1055.27 307.584 1039.13 293.042C1029.8 284.504 1017.4 283.037 1005.67 288.773Z" fill="#3A3238"/>
<path d="M1310.2 293.576C1301.53 296.645 1294.87 305.983 1294.87 314.922C1294.87 320.392 1299.67 328.797 1304.6 332.532C1310.2 336.668 1323.27 336.535 1329.4 332.132C1344.07 321.593 1339.67 297.845 1322.2 293.443C1315.4 291.708 1315.53 291.708 1310.2 293.576Z" fill="#3A3238"/>
<path d="M674.6 338.136C667.8 341.738 667.533 353.478 673.933 358.014C675.533 359.081 679 360.015 681.533 360.015C693.4 360.015 697.4 343.472 686.733 338.002C682.067 335.467 679.267 335.601 674.6 338.136Z" fill="#3A3238"/>
<path d="M775.133 361.349C745.667 369.087 720.333 392.568 710.867 421.118C698.6 458.206 711.4 500.365 742.067 523.712C795 563.735 870.467 537.72 887.667 473.415C889.133 467.812 889.933 459.807 889.933 450.735C889.933 428.589 883.267 409.244 869.933 392.701C847.4 364.951 809.4 352.411 775.133 361.349Z" fill="#3A3238"/>
<path d="M1292.6 366.686C1287.4 369.754 1285.53 373.09 1285.53 379.093C1285.53 388.299 1295.93 395.503 1304.33 392.034C1315.8 387.231 1316.47 371.755 1305.53 366.019C1300.47 363.351 1297.8 363.484 1292.6 366.686Z" fill="#3A3238"/>
<path d="M1024.2 378.693C978.2 385.097 938.733 409.911 913.667 448.067C897.667 472.482 889.267 500.365 887.8 532.784L887.533 540.789L880.467 541.722C869.8 543.323 853.533 550.127 843.133 557.465C826.467 569.205 813.8 586.415 807.267 606.16C804.067 615.633 803.667 618.835 803.667 635.511C803.667 652.588 803.933 655.123 807.4 664.862C813.667 683.006 823.267 697.147 837.133 708.487C872.067 737.438 923.267 737.438 957.8 708.487C965.667 702.084 976.333 689.409 980.6 681.538C982.2 678.47 983.533 677.402 985.267 678.069C986.467 678.47 993.133 680.471 999.933 682.472C1012.07 686.074 1012.2 686.074 1012.2 690.343C1012.2 692.745 1013.4 701.683 1014.87 710.222C1027.8 785.866 1082.07 849.37 1154.6 873.651C1179.53 881.923 1190.07 883.524 1220.87 883.524C1251.8 883.524 1263.67 881.79 1288.47 873.518C1303 868.715 1328.07 856.174 1339.8 848.036C1382.6 818.152 1412.2 775.06 1424.87 724.23C1434.2 686.741 1432.47 644.716 1420.2 608.028C1418.07 601.358 1416.2 595.754 1416.2 595.354C1416.2 595.087 1420.2 594.82 1425.27 594.82C1460.47 594.687 1491 570.006 1498.2 535.452C1503.4 510.504 1496.47 487.023 1478.2 468.613C1463.13 453.27 1446.07 446.199 1424.87 446.466C1391.53 446.733 1363.13 468.613 1354.07 500.898L1351.8 509.036L1339 500.365C1316.07 484.755 1290.6 474.083 1261.27 467.946C1246.33 464.744 1211.27 463.676 1192.87 465.811L1183.53 466.878L1178.2 456.739C1159.27 420.184 1119.8 390.967 1076.2 381.228C1063 378.293 1036.6 376.959 1024.2 378.693Z" fill="#3A3238"/>
<path d="M678.867 578.944C666.6 584.548 661 593.219 661 606.827C661 617.1 664.333 624.571 671.533 630.575C691.533 646.985 721.533 632.843 721.533 606.827C721.533 584.548 698.867 569.872 678.867 578.944Z" fill="#3A3238"/>
<path d="M766.867 772.525C755.267 778.529 750.2 789.735 752.733 803.61C755.533 818.019 775.8 827.357 789.4 820.42C795.4 817.218 802.6 809.48 803.533 804.944C803.933 803.076 804.467 800.141 804.867 798.407C805.933 793.204 801.933 782.531 797.267 777.995C788.333 769.323 777.133 767.322 766.867 772.525Z" fill="#3A3238"/>
<path d="M-138.327 680.114C-90.2261 746.406 -28.4398 795.831 43.8077 825.362C98.9753 847.985 179.649 848.383 250.769 826.45C257.185 824.55 267.933 821.658 274.694 820.17C299.151 814.806 329.349 804.767 355.407 793.36C401.318 773.346 452.612 742.12 479.892 717.737C509.624 691.108 522.401 663.527 520.926 629.231C520.311 615.793 518.248 603.096 511.758 572.03C508.683 557.777 505.435 540.354 504.566 533.298C497.461 481.435 506.195 439.553 534.37 388.894C541.37 376.332 549.103 363.956 569.501 332.956C597.286 290.598 607.085 274.054 615.597 254.58C634.912 210.414 637.424 175.43 624.468 126.976C606.984 61.2339 571.454 9.89362 518.2 -27.0284C513.35 -30.3338 511.683 -32.1212 506.561 -39.6625C443.245 -131.732 299.292 -165.457 138.142 -125.898C124.476 -122.634 122.438 -122.366 111.183 -122.857C75.8021 -124.412 40.4329 -118.411 6.78989 -105.139C-4.98526 -100.421 -37.2099 -82.5588 -48.9458 -74.1854C-95.4552 -40.8428 -133.868 5.86949 -167.44 69.6891C-171.448 77.3396 -177.576 88.1675 -181.047 93.8697C-189.909 108.437 -201.834 132.455 -208.595 149.375C-214.931 165.229 -224.387 198.334 -227.372 214.382C-232.805 244.529 -234.393 272.128 -231.997 293.828C-231.459 298.522 -231.43 309.338 -232.01 317.852C-232.546 326.443 -233.079 340.959 -233.215 350.236C-233.513 371.258 -230.898 417.563 -228.266 437.695C-220.253 500.27 -204.546 555.602 -179.818 608.844C-171.882 625.885 -148.471 666.098 -138.327 680.114Z" fill="#3A3238"/>
</svg>
